<?xml version="1.0" encoding="UTF-8" standalone="no"?>
<svg
   xmlns:dc="http://purl.org/dc/elements/1.1/"
   xmlns:cc="http://creativecommons.org/ns#"
   xmlns:rdf="http://www.w3.org/1999/02/22-rdf-syntax-ns#"
   xmlns:svg="http://www.w3.org/2000/svg"
   xmlns="http://www.w3.org/2000/svg"
   xmlns:sodipodi="http://sodipodi.sourceforge.net/DTD/sodipodi-0.dtd"
   xmlns:inkscape="http://www.inkscape.org/namespaces/inkscape"
   id="svg2"
   version="1.1"
   inkscape:version="0.91 r13725"
   sodipodi:docname="club.svg">
  <metadata
     id="metadata10">
    <rdf:RDF>
      <cc:Work
         rdf:about="">
        <dc:format>image/svg+xml</dc:format>
        <dc:type
           rdf:resource="http://purl.org/dc/dcmitype/StillImage" />
      </cc:Work>
    </rdf:RDF>
  </metadata>
  <defs
     id="defs8" />
  <sodipodi:namedview
     pagecolor="#ffffff"
     bordercolor="#666666"
     borderopacity="1"
     objecttolerance="10"
     gridtolerance="10"
     guidetolerance="10"
     inkscape:pageopacity="0"
     inkscape:pageshadow="2"
     inkscape:window-width="640"
     inkscape:window-height="480"
     id="namedview6"
     showgrid="false"
     inkscape:zoom="2.36"
     inkscape:cx="50"
     inkscape:cy="50"
     inkscape:window-x="0"
     inkscape:window-y="0"
     inkscape:window-maximized="0"
     inkscape:current-layer="svg2" />
  <path
     d="m 22.853229,-0.4181986 c -9.7745,0.21226 -14.1574004,11.2172896 -6.9184,19.7633296 1.0499,1.24653 1.1582,1.96187 -0.7646,0.76452 -4.8738,-3.2592 -14.21920043,-1.11662 -14.69770043,8.8473 -0.5912,12.27697 16.56280043,15.8143 19.78360043,2.75967 0.1701,-1.37736 1.2894,-1.34593 1.0195,0.60916 -0.2936,5.30642 -1.9508,10.26608 -4.2286,15.10256 3.8391,0 8.1296,0 11.6202,0 -2.2777,-4.83648 -3.9349,-9.79614 -4.2286,-15.10256 -0.2699,-1.95509 0.8495,-1.98652 1.0195,-0.60916 3.2209,13.05463 20.3748,9.5173 19.7837,-2.75967 -0.4785,-9.96392 -9.824,-12.1065 -14.6978,-8.8473 -1.9228,1.19735 -1.8145,0.48201 -0.7646,-0.76452 7.239,-8.54604 2.8561,-19.5510596 -6.9183,-19.7633296 0,-6e-5 0,5e-5 -0.01,0 z"
     id="path4"
     inkscape:connector-curvature="0" />
</svg>
